<?xml version="1.0" encoding="UTF-8"?>
<svg id="Layer_2" data-name="Layer 2" xmlns="http://www.w3.org/2000/svg" viewBox="0 0 224.68 35.17">
  <defs>
    <style>
      .cls-1 {
        fill: #fff;
      }
    </style>
  </defs>
  <g id="Layer_3" data-name="Layer 3">
    <g>
      <path class="cls-1" d="M9.33,23.66v3.23H0v-3.23H2.88V11.67H0v-3.25H6.52v15.24h2.81ZM6.73,2.2c0,.6-.22,1.11-.65,1.55s-.95,.65-1.55,.65-1.11-.22-1.53-.65-.63-.95-.63-1.55,.21-1.11,.63-1.55,.93-.65,1.53-.65,1.14,.21,1.56,.63,.63,.94,.63,1.56Z"/>
      <path class="cls-1" d="M14.27,23.66V11.67h-3.11v-3.25h6.73v2.34c2.17-1.72,4.29-2.58,6.38-2.58s3.6,.96,4.39,2.88c2.37-1.92,4.6-2.88,6.7-2.88,1.49,0,2.67,.44,3.56,1.32s1.33,2.23,1.33,4.04v10.12h3.23v3.23h-6.84V15.19c0-.81-.04-1.46-.12-1.97s-.3-.93-.64-1.28-.89-.53-1.64-.53c-.67,0-1.45,.2-2.34,.6s-1.83,1-2.81,1.79v9.86h3.13v3.23h-6.77V14.73c0-1.18-.18-2.03-.54-2.55s-.95-.77-1.77-.77c-1.34,0-3.09,.8-5.26,2.39v9.86h3.25v3.23H10.95v-3.23h3.32Z"/>
      <path class="cls-1" d="M60.59,14.94v8.72h3.09v3.23h-6.29v-2.27c-1.76,1.72-3.71,2.58-5.87,2.58-1.14,0-2.18-.26-3.12-.79-.94-.53-1.7-1.23-2.27-2.12s-.85-1.87-.85-2.94c0-1.16,.31-2.19,.94-3.1s1.47-1.61,2.54-2.1,2.14-.74,3.22-.74c1.8,0,3.49,.53,5.04,1.58v-1.99c0-1.44-.3-2.47-.91-3.09s-1.61-.93-3.01-.93c-.98,0-1.81,.18-2.47,.54s-1.21,.9-1.64,1.63l-3.48-.86c.79-1.46,1.85-2.56,3.18-3.28s2.92-1.08,4.76-1.08c2.47,0,4.28,.56,5.42,1.69s1.71,2.9,1.71,5.33Zm-8.58,9.47c1.78,0,3.45-.74,5.01-2.23v-2.16c-1.58-1.23-3.16-1.85-4.75-1.85-.96,0-1.79,.3-2.49,.91-.7,.6-1.05,1.36-1.05,2.28s.3,1.61,.91,2.19,1.39,.87,2.36,.87Z"/>
      <path class="cls-1" d="M78.7,11.44h-2.92v-3.02h10.23v3.02h-2.85l-6.91,5.73,6.52,6.49h3.23v3.23h-4.8l-9.25-9.32v6.08h3.13v3.23h-10.07v-3.23h3.3V3.6h-3.3V.4h6.94V17.1l6.73-5.66Z"/>
      <path class="cls-1" d="M107.47,18.58h-15.49c.22,1.77,.91,3.17,2.06,4.19s2.55,1.54,4.22,1.54c1.22,0,2.35-.25,3.39-.76s1.92-1.28,2.62-2.32l3.2,1.44c-1.01,1.57-2.33,2.76-3.96,3.56s-3.41,1.2-5.33,1.2-3.76-.42-5.31-1.25-2.75-1.99-3.61-3.48-1.29-3.16-1.29-5.03,.42-3.52,1.27-5.01,2.01-2.65,3.49-3.49,3.11-1.26,4.89-1.26c1.95,0,3.64,.43,5.09,1.29s2.59,2.09,3.42,3.69,1.28,3.49,1.35,5.67Zm-9.79-7.63c-1.37,0-2.57,.46-3.6,1.38s-1.69,2.14-1.99,3.65h11.57c-.34-1.51-1.06-2.73-2.16-3.65s-2.37-1.38-3.81-1.38Z"/>
      <path class="cls-1" d="M112.18,26.89v-4.68h4.69v4.68h-4.69Z"/>
      <path class="cls-1" d="M132.79,9.21v-.79h3.16v6.13h-3.16v-1.12c-1.05-1.51-2.5-2.27-4.32-2.27-.96,0-1.75,.21-2.36,.63s-.91,.97-.91,1.63c0,.6,.23,1.07,.69,1.41s1.5,.64,3.12,.9l2.44,.47c3.64,.67,5.47,2.46,5.47,5.36,0,1.7-.66,3.06-1.98,4.1s-3.07,1.55-5.25,1.55c-.87,0-1.72-.13-2.56-.38s-1.54-.57-2.1-.94v1h-3.23v-6.33h3.23v.63c.18,.89,.67,1.61,1.49,2.14s1.76,.81,2.84,.81c1.18,0,2.12-.21,2.79-.62s1.02-1.03,1.02-1.85c0-.6-.27-1.05-.81-1.34s-1.62-.61-3.25-.92l-1.88-.4c-1.86-.38-3.23-1.02-4.1-1.93s-1.3-2.08-1.3-3.5c0-1.15,.32-2.13,.96-2.94s1.46-1.43,2.45-1.84,2.02-.62,3.08-.62c1.77,0,3.26,.35,4.46,1.04Z"/>
      <path class="cls-1" d="M161.23,17.75c0,1.72-.4,3.33-1.2,4.83s-1.88,2.68-3.26,3.55-2.9,1.3-4.58,1.3c-2.47,0-4.63-.95-6.49-2.85v7.35h3.6v3.23h-10.58v-3.23h3.34V11.67h-3.09v-3.25h6.73v2.95c.91-1.08,1.92-1.88,3.02-2.41s2.28-.79,3.53-.79c1.75,0,3.3,.43,4.66,1.29s2.42,2.02,3.17,3.49,1.13,3.06,1.13,4.8Zm-9.09,6.36c1.01,0,1.92-.29,2.72-.88s1.44-1.38,1.9-2.39,.69-2.07,.69-3.2-.25-2.18-.76-3.14-1.2-1.72-2.07-2.29-1.87-.85-2.97-.85-2.18,.3-3.09,.91-1.62,1.4-2.13,2.4-.76,2.09-.76,3.29c0,1.92,.61,3.43,1.82,4.52s2.76,1.63,4.65,1.63Z"/>
      <path class="cls-1" d="M179.68,14.94v8.72h3.09v3.23h-6.29v-2.27c-1.76,1.72-3.71,2.58-5.87,2.58-1.14,0-2.18-.26-3.12-.79s-1.7-1.23-2.27-2.12-.85-1.87-.85-2.94c0-1.16,.31-2.19,.94-3.1s1.47-1.61,2.54-2.1,2.14-.74,3.22-.74c1.8,0,3.49,.53,5.04,1.58v-1.99c0-1.44-.3-2.47-.91-3.09s-1.61-.93-3.01-.93c-.98,0-1.81,.18-2.47,.54s-1.21,.9-1.64,1.63l-3.48-.86c.79-1.46,1.85-2.56,3.18-3.28s2.92-1.08,4.76-1.08c2.47,0,4.28,.56,5.42,1.69s1.71,2.9,1.71,5.33Zm-8.58,9.47c1.78,0,3.45-.74,5.01-2.23v-2.16c-1.58-1.23-3.16-1.85-4.75-1.85-.96,0-1.79,.3-2.49,.91s-1.05,1.36-1.05,2.28,.3,1.61,.91,2.19,1.39,.87,2.36,.87Z"/>
      <path class="cls-1" d="M199.09,9.76v-1.34h3.23v7h-3.23c-.14-1.35-.68-2.38-1.62-3.08s-2.02-1.06-3.25-1.06c-1.05,0-2,.28-2.84,.84s-1.49,1.32-1.94,2.29-.69,2.01-.69,3.15c0,1.93,.52,3.51,1.55,4.74s2.39,1.84,4.08,1.84c2.61,0,4.46-1.21,5.54-3.64l3.02,1.44c-1.7,3.68-4.61,5.52-8.72,5.52-1.84,0-3.47-.43-4.9-1.3s-2.53-2.06-3.31-3.57-1.17-3.19-1.17-5.03,.4-3.45,1.19-4.92,1.88-2.63,3.26-3.45,2.92-1.24,4.62-1.24c2.02,0,3.74,.61,5.19,1.83Z"/>
      <path class="cls-1" d="M224.68,18.58h-15.49c.22,1.77,.91,3.17,2.06,4.19s2.55,1.54,4.22,1.54c1.22,0,2.35-.25,3.39-.76s1.92-1.28,2.62-2.32l3.2,1.44c-1.01,1.57-2.33,2.76-3.96,3.56s-3.41,1.2-5.33,1.2-3.76-.42-5.31-1.25-2.75-1.99-3.61-3.48-1.29-3.16-1.29-5.03,.42-3.52,1.27-5.01,2.01-2.65,3.49-3.49,3.11-1.26,4.89-1.26c1.95,0,3.64,.43,5.09,1.29s2.59,2.09,3.42,3.69,1.28,3.49,1.35,5.67Zm-9.79-7.63c-1.37,0-2.57,.46-3.6,1.38s-1.69,2.14-1.99,3.65h11.57c-.34-1.51-1.06-2.73-2.16-3.65s-2.37-1.38-3.81-1.38Z"/>
    </g>
  </g>
</svg>