<?xml version="1.0" encoding="UTF-8"?>
<svg id="Layer_1" data-name="Layer 1" xmlns="http://www.w3.org/2000/svg" viewBox="0 0 93.41 21.94">
  <defs>
    <style>
      .cls-1 {
        fill: #fff;
      }
    </style>
  </defs>
  <path class="cls-1" d="M8.5,14.91c-2.78,1.01-5.71,2.02-7.97,2.76l-.53-2.35c.89-.24,2.02-.55,3.29-.86V4.73H.38V2.62h7.71v2.11h-2.59V13.8l2.71-.77,.29,1.87Zm7.63-1.7c0,3.19-1.25,6.62-7.94,8.71-.29-.46-.94-1.3-1.42-1.7,6.41-1.7,7.13-4.61,7.13-7.03v-4.94h2.23v4.97Zm-3.24-8.09c.26-.67,.53-1.46,.74-2.18h-5.16V.91h13.71V2.93h-5.93c-.36,.77-.7,1.54-1.06,2.18h5.57v11.11h-2.26V7.1h-7.1v9.19h-2.16V5.11h3.65Zm4.2,11.5c1.78,1.06,4.13,2.66,5.28,3.72l-1.49,1.54c-1.1-1.1-3.38-2.76-5.18-3.89l1.39-1.37Z"/>
  <path class="cls-1" d="M43.42,1.3V21.77h-2.35v-1.58h-11.86v1.58h-2.26V1.3h16.47Zm-14.21,2.18v3.41h11.86V3.48h-11.86Zm0,5.52v3.46h11.86v-3.46h-11.86Zm11.86,9v-3.43h-11.86v3.43h11.86Z"/>
  <path class="cls-1" d="M55.97,.67c-.65,1.68-1.46,3.41-2.38,5.02V21.89h-2.26V9.22c-.62,.86-1.3,1.66-1.97,2.35-.22-.55-.86-1.8-1.25-2.3,2.28-2.26,4.42-5.76,5.71-9.26l2.14,.67Zm7.25,5.3v3.05h6.53v2.04h-6.53v3.19h6.87v2.09h-6.87v5.57h-2.28V5.98h-1.34c-1.01,1.87-2.11,3.55-3.26,4.82-.36-.38-1.22-1.18-1.73-1.51,2.11-2.21,4.03-5.66,5.18-9.12l2.14,.58c-.38,1.03-.79,2.09-1.25,3.1h9.65v2.14h-7.11Z"/>
  <path class="cls-1" d="M73.25,11.42h8.69v10.34h-2.21v-1.08h-4.37v1.25h-2.11V11.42Zm2.11,2.14v4.99h4.37v-4.99h-4.37Zm14.69-4.46h-13.42V.91h13.42V9.1Zm-2.28-6.05h-9v3.91h9V3.05Zm5.64,8.38v10.39h-2.23v-1.13h-4.75v1.25h-2.14V11.42h9.12Zm-2.23,7.13v-4.99h-4.75v4.99h4.75Z"/>
</svg>